<?xml version="1.0" standalone="no"?>
<!DOCTYPE svg PUBLIC "-//W3C//DTD SVG 20010904//EN"
 "http://www.w3.org/TR/2001/REC-SVG-20010904/DTD/svg10.dtd">
<svg version="1.0" xmlns="http://www.w3.org/2000/svg"
 width="200.000000pt" height="153.000000pt" viewBox="0 0 200.000000 153.000000"
 preserveAspectRatio="xMidYMid meet">
<metadata>
Created by potrace 1.16, written by Peter Selinger 2001-2019
</metadata>
<g transform="translate(0.000000,153.000000) scale(0.100000,-0.100000)"
fill="#000000" stroke="none">
<path d="M184 1509 c-167 -52 -221 -240 -159 -548 121 -598 448 -976 830 -959
105 4 171 36 330 157 96 73 163 114 330 198 273 138 334 178 406 274 164 216
58 593 -199 715 -85 40 -214 62 -467 79 -212 15 -365 33 -695 85 -162 25 -295
25 -376 -1z"/>
</g>
</svg>
